<?xml version="1.0" encoding="UTF-8" standalone="no"?>
<!DOCTYPE svg PUBLIC "-//W3C//DTD SVG 1.1//EN"
 "http://www.w3.org/Graphics/SVG/1.1/DTD/svg11.dtd">
<!-- Generated by graphviz version 12.2.1 (20241206.2353)
 -->
<!-- Title: ROSEN_SYS_CON Pages: 1 -->
<svg width="202pt" height="119pt"
 viewBox="0.00 0.00 201.50 118.82" xmlns="http://www.w3.org/2000/svg" xmlns:xlink="http://www.w3.org/1999/xlink">
<g id="graph0" class="graph" transform="scale(1 1) rotate(0) translate(4 114.82)">
<title>ROSEN_SYS_CON</title>
<polygon fill="white" stroke="none" points="-4,4 -4,-114.82 197.5,-114.82 197.5,4 -4,4"/>
<!-- dvs -->
<g id="node1" class="node">
<title>dvs</title>
<polygon fill="none" stroke="black" points="54,-72.75 0,-72.75 0,-36.75 54,-36.75 54,-72.75"/>
<text text-anchor="middle" x="27" y="-49.33" font-family="Helvetica,sans-Serif" font-size="14.00">dvs</text>
</g>
<!-- rosenbrock -->
<g id="node2" class="node">
<title>rosenbrock</title>
<polygon fill="none" stroke="red" points="193.5,-108.5 110.75,-108.5 110.75,-69 193.5,-69 193.5,-108.5"/>
<text text-anchor="middle" x="152.12" y="-91.2" font-family="Helvetica,sans-Serif" font-size="14.00">rosenbrock</text>
<text text-anchor="middle" x="152.12" y="-75.45" font-family="Helvetica,sans-Serif" font-size="14.00">Outputs: f</text>
</g>
<!-- dvs&#45;&gt;rosenbrock -->
<g id="edge1" class="edge">
<title>dvs&#45;&gt;rosenbrock</title>
<path fill="none" stroke="black" d="M46.64,-73.2C55.63,-80.82 67.05,-88.79 79,-92.75 85.33,-94.85 92.14,-95.9 98.96,-96.26"/>
<polygon fill="black" stroke="black" points="98.85,-99.76 108.85,-96.25 98.85,-92.76 98.85,-99.76"/>
<text text-anchor="middle" x="82.38" y="-97.52" font-family="Times New Roman,serif" font-size="14.00">x</text>
</g>
<!-- dvs&#45;&gt;rosenbrock -->
<g id="edge2" class="edge">
<title>dvs&#45;&gt;rosenbrock</title>
<path fill="none" stroke="black" d="M54.41,-62.04C67.73,-65.72 84.35,-70.31 100.04,-74.64"/>
<polygon fill="black" stroke="black" points="98.67,-77.9 109.24,-77.18 100.53,-71.15 98.67,-77.9"/>
<text text-anchor="middle" x="82.38" y="-72.91" font-family="Times New Roman,serif" font-size="14.00">y</text>
</g>
<!-- con -->
<g id="node3" class="node">
<title>con</title>
<polygon fill="none" stroke="red" points="191.62,-39.5 112.62,-39.5 112.62,0 191.62,0 191.62,-39.5"/>
<text text-anchor="middle" x="152.12" y="-22.2" font-family="Helvetica,sans-Serif" font-size="14.00">con</text>
<text text-anchor="middle" x="152.12" y="-6.45" font-family="Helvetica,sans-Serif" font-size="14.00">Outputs: g</text>
</g>
<!-- dvs&#45;&gt;con -->
<g id="edge3" class="edge">
<title>dvs&#45;&gt;con</title>
<path fill="none" stroke="black" d="M54.41,-47.24C68.08,-43.36 85.22,-38.49 101.25,-33.93"/>
<polygon fill="black" stroke="black" points="102.01,-37.35 110.67,-31.25 100.09,-30.62 102.01,-37.35"/>
<text text-anchor="middle" x="82.38" y="-42.55" font-family="Times New Roman,serif" font-size="14.00">x</text>
</g>
<!-- dvs&#45;&gt;con -->
<g id="edge4" class="edge">
<title>dvs&#45;&gt;con</title>
<path fill="none" stroke="black" d="M48.28,-36.37C57.07,-29.6 67.88,-22.74 79,-19.25 85.98,-17.06 93.53,-15.89 101.03,-15.4"/>
<polygon fill="black" stroke="black" points="100.87,-18.91 110.78,-15.16 100.7,-11.91 100.87,-18.91"/>
<text text-anchor="middle" x="82.38" y="-22.45" font-family="Times New Roman,serif" font-size="14.00">y</text>
</g>
</g>
</svg>
